<?xml version="1.0" encoding="UTF-8"?>
<svg id="_Слой_1" data-name="Слой 1" xmlns="http://www.w3.org/2000/svg" viewBox="0 0 570.74 563.48">
  <defs>
    <style>
      .cls-1, .cls-2 {
        stroke-width: 0px;
      }

      .cls-1, .cls-3 {
        fill: #4040a0;
      }

      .cls-2 {
        fill: #fff;
      }

      .cls-3 {
        stroke: #4040a0;
        stroke-miterlimit: 10;
        stroke-width: 17px;
      }
    </style>
  </defs>
  <path class="cls-1" d="m557.46,186.03c-2.65-8.09-5.72-16.07-9.2-23.89-11.83-26.72-28.25-51.62-48.3-73.05-6.99-7.5-14.46-14.6-22.29-21.28-22.08-19.59-47.38-35.7-74.61-47.07-17.47-7.33-35.72-12.78-54.29-16.24-15.09-2.78-30.37-4.22-45.65-4.42-3.54-.1-7.02-.1-10.56,0-1.41.04-2.81.12-4.21.18,15.01.24,30.02,1.65,44.83,4.32,18.58,3.4,36.82,8.75,54.29,15.96,35.01,14.37,66.88,36.39,92.73,63.58,25.92,27.23,45.78,60.15,57.49,95.26,11.85,35.18,15.48,72.37,12.05,108.02-.71,7.78-1.78,15.48-3.2,23.09-1.78,9.96-4.07,19.79-6.93,29.42-4.95,16.8-11.34,33.02-18.98,48.4-8.85,17.74-19.35,34.4-31.34,49.85-8.95,11.55-18.72,22.38-29.15,32.42-36.82,35.55-83.24,60.76-133.4,72.37-6.26,1.48-12.56,2.73-18.92,3.74-.13.03-.3.03-.44.07-10.03,1.62-20.16,2.66-30.43,3.16-34.27,1.72-69.24-3.2-102.19-15.05-.1-.07-.2-.07-.27-.1-16.46-5.99-32.48-13.6-47.56-22.89-15.05-9.26-29.15-20.23-42.08-32.38-19.15-18.24-35.75-39.42-48.94-62.57-2.94-5.16-5.69-10.42-8.29-15.77,5.56,12.28,12.6,25.63,21.51,39.39,13.18,20.34,25.65,34.15,29.54,38.38,16.54,17.96,48.06,47.21,99.22,68.82.04,0,.08.03.12.04.05.01.09.03.14.06,31.34,11.47,64.49,16.54,97.14,15.5,7.14.22,14.3.17,21.4-.2,10.27-.5,20.4-1.57,30.43-3.21.13-.03.3-.03.43-.07,6.37-1.02,12.67-2.29,18.92-3.8,50.16-11.82,96.57-37.47,133.4-73.66,10.43-10.21,20.19-21.25,29.15-33,11.98-15.72,22.47-32.67,31.34-50.73.74-1.51,1.46-3.03,2.16-4.55,6.7-14.28,12.35-29.25,16.83-44.71,2.86-9.79,5.15-19.81,6.93-29.94,1.41-7.75,2.5-15.59,3.19-23.51,3.44-36.28-.2-74.14-12.04-109.94Z"/>
  <path class="cls-3" d="m48.34,366.57c1.74,7.49,3.87,14.92,6.36,22.24,8.58,25.26,21.49,49.19,38.06,70.08,5.83,7.38,12.13,14.4,18.81,21.03,18.95,19.62,41.21,35.93,65.61,47.55,15.75,7.54,32.32,13.16,49.29,16.75,13.81,2.88,27.83,4.38,41.86,4.59,3.25.1,6.45.1,9.7,0,1.29-.04,2.58-.13,3.87-.19-13.79-.25-27.56-1.71-41.13-4.49-16.99-3.52-33.59-9.05-49.37-16.45-31.42-14.68-59.37-36.89-81.26-63.91-21.58-26.59-37.11-58.12-45.11-91.04-7.94-32.28-8.61-65.66-3.43-96.95,1.08-6.74,2.46-13.39,4.11-19.92,2.09-8.51,4.58-16.86,7.52-24.98,5.05-14.07,11.2-27.53,18.26-40.18,8.1-14.44,17.4-27.87,27.75-40.22,7.67-9.15,15.91-17.69,24.6-25.54,30.29-27.47,67.3-46.62,106.61-55.36,4.89-1.11,9.8-2.04,14.76-2.8,0,0,.17-.03.34-.05,50.04-7.35,96.17,6.52,96.17,6.52,1.39.42,4.07,1.24,7.47,2.4.08.05.16.05.21.08,13.05,4.52,25.86,10.28,38.04,17.35,12.22,7.08,23.83,15.52,34.64,24.92,16.17,14.24,30.62,30.96,42.62,49.48,2.7,4.16,5.26,8.42,7.7,12.75-5.28-9.94-11.77-20.67-19.75-31.64-11.68-16.06-22.33-26.86-25.64-30.14-13.95-13.88-39.96-36.19-80.62-52.45-.03,0-.06-.02-.09-.03-.04,0-.07-.02-.11-.05-24.63-8.55-50.42-12.31-75.73-11.54-5.54-.16-11.09-.12-16.6.15-7.96.37-15.83,1.17-23.62,2.38-.1.02-.23.02-.33.05-4.95.76-9.85,1.7-14.72,2.83-39.22,8.82-76.21,28.18-106.58,55.95-8.71,7.94-16.97,16.58-24.69,25.83-10.39,12.48-19.74,26.05-27.93,40.67-.69,1.23-1.36,2.47-2.01,3.71-6.29,11.7-11.83,24.06-16.47,36.94-2.99,8.22-5.52,16.68-7.66,25.29-1.69,6.62-3.12,13.34-4.23,20.17-5.39,31.7-4.95,65.52,2.75,98.22Z"/>
  <path class="cls-2" d="m537.71,179.38c-11.71-35.11-31.57-68.03-57.49-95.26-25.85-27.2-57.73-49.21-92.73-63.58-17.47-7.2-35.71-12.56-54.29-15.96-14.81-2.68-29.82-4.08-44.83-4.32-.27,0-.54-.02-.81-.02-3.53-.1-7.04-.1-10.57,0-23.66.64-47.16,4.31-69.78,10.74-13.3,3.77-26.29,8.52-38.84,14.14-33.93,15.18-64.73,36.99-90.18,63.48-25.48,26.46-45.71,57.96-59.01,91.99-4.21,10.7-7.71,21.64-10.5,32.72C2.47,237.55-.42,262.56.05,287.4c.37,14.71,1.92,29.35,4.58,43.83,3.94,21.07,10.27,41.67,18.92,61.13,1.31,2.97,2.69,5.9,4.1,8.81,2.59,5.34,5.35,10.6,8.29,15.77,13.19,23.16,29.79,44.33,48.94,62.57,12.93,12.15,27.03,23.12,42.08,32.38,15.08,9.29,31.1,16.9,47.56,22.89.07.03.17.03.27.1,32.95,11.85,67.93,16.76,102.19,15.05,10.27-.51,20.4-1.55,30.43-3.16.13-.03.3-.03.44-.07,6.36-1.01,12.66-2.26,18.92-3.74,50.15-11.61,96.57-36.82,133.4-72.37,10.43-10.03,20.2-20.87,29.15-32.42,11.98-15.45,22.49-32.11,31.34-49.85,7.64-15.38,14.04-31.61,18.98-48.4,2.86-9.63,5.15-19.46,6.93-29.42,1.41-7.61,2.49-15.32,3.2-23.09,3.43-35.65-.2-72.84-12.05-108.02Zm-21.44,155.61c-.54,5.25-1.25,10.5-2.15,15.72-.34,1.95-.71,3.87-1.08,5.76-1.72,8.72-3.97,17.4-6.8,25.88-5.79,17.77-14.07,34.87-24.4,50.73-3.67,5.76-7.67,11.31-11.92,16.66-4.44,5.69-9.22,11.14-14.2,16.39-21.59,22.41-47.76,40.53-76.47,52.63-1.61.68-3.24,1.34-4.87,1.98-.21.08-.41.17-.62.25-14.07,5.59-28.68,9.66-43.56,12.29-1.31.27-2.59.47-3.9.71-.07,0-.17.03-.24.03-16.26,2.59-32.75,3.37-49.08,2.66-10.4-.57-20.73-1.78-30.93-3.64-2.05-.37-4.11-.77-6.16-1.21-1.11-.2-2.22-.44-3.33-.71-5.82-1.28-11.58-2.79-17.3-4.51-10.81-3.2-21.34-7.17-31.51-11.81-1.41-.61-2.79-1.25-4.14-1.92-28.98-13.7-54.8-32.85-76.41-55.71-16.56-17.47-30.36-37.4-40.9-58.8-3.27-6.56-6.16-13.26-8.79-20.06-11.11-29.05-16.33-60.15-15.42-90.95.07-5.65.44-11.28,1.01-16.9,1.18-12.42,3.33-24.74,6.5-36.76,0-.07,0-.1.03-.17,3.13-12.08,7.2-23.87,12.25-35.28,12.29-27.87,30.13-53.05,52.01-73.95,11.01-10.43,22.92-19.69,35.65-27.7,1.88-1.21,3.8-2.39,5.72-3.5,11.07-6.46,22.62-11.88,34.47-16.33,18.18-6.77,37.09-11.11,56.21-13.06,8.38-.88,16.83-1.25,25.28-1.11,1.92,0,3.84.03,5.76.1,8.11.27,16.16.94,24.13,2.02,45.24,6.09,88.16,24.91,123.3,54.13,3.8,3.13,7.54,6.5,11.21,9.93,14.58,13.67,27.64,29.02,38.84,45.85,5.32,7.94,10.23,16.26,14.71,24.87,13.8,26.73,23.46,56.52,26.83,87.85,1.65,15.65,1.82,31.67.27,47.63Z"/>
</svg>